# xmcd
#
# Track frame offsets: 
#        150
#        14547
#        27666
#        42936
#        55989
#        69620
#        80600
#        95962
#        110854
#        124677
#        139048
#        150240
#        163944
#        176113
#        188667
#        203397
#        214911
#        226564
#        238618
#        253161
#
# Disc length: 3546 seconds
#
# Revision: 0
# Processed by: cddbd v1.5.2PL0 Copyright (c) Steve Scherf et al.
# Submitted via: ExactAudioCopy v0.95b4
#
DISCID=1d0dd814
DTITLE=Nat King Cole - Unforgettable - CD2
DYEAR=2006
DGENRE=Blues
TTITLE0=Sweet Lorraine
TTITLE1=It's Only A Paper Moon
TTITLE2=Embraceable You
TTITLE3=(I Love You) For Sentimental Reasons
TTITLE4=(Get Your Kicks On) Route 66
TTITLE5=Straighten Up and Fly Right
TTITLE6=Don't Blame Me
TTITLE7=The Frim Fram Sauce
TTITLE8=What'll I Do?
TTITLE9=I Don't Know Why (I Just Do)
TTITLE10=You're The Cream In My Coffee
TTITLE11=For All We Know
TTITLE12=Exactly Like You
TTITLE13=My Baby Just Cares For Me
TTITLE14=I've Got The World On A String
TTITLE15=Too Marvellous For Words
TTITLE16=Blue and Sentimental
TTITLE17=Save The Bones For Henry Jones
TTITLE18=I'll String Along with You
TTITLE19=Dream A Little Dream
EXTD=
EXTT0=
EXTT1=
EXTT2=
EXTT3=
EXTT4=
EXTT5=
EXTT6=
EXTT7=
EXTT8=
EXTT9=
EXTT10=
EXTT11=
EXTT12=
EXTT13=
EXTT14=
EXTT15=
EXTT16=
EXTT17=
EXTT18=
EXTT19=
PLAYORDER=
